PathFileType	4	(X/Y/Z)	Patient5_TMGait_0pt45_1_right_06.trc.trc
DataRate	CameraRate	NumFrames	NumMarkers	Units	OrigDataRate	OrigDataStartFrame	OrigNumFrames
63.636363636364	63.636363636364	4	32	mm	63.636363636364	89	       141
Frame#	Time	R.ASIS			L.ASIS			Chest			R.Shoulder			Neck			L.Shoulder			L.Elbow			L.Wrist			R.Elbow			R.Wrist			L.Thigh.Superior			L.Thigh.Lateral			L.Thigh.Inferior			L.Patella			L.Shank.Superior			L.Shank.Lateral			L.Shank.Inferior			L.Heel			L.Midfoot.Lateral			L.Midfoot.Superior			L.Toe			R.Thigh.Superior			R.Thigh.Lateral			R.Thigh.Inferior			R.Patella			R.Shank.Superior			R.Shank.Lateral			R.Shank.Inferior			R.Heel			R.Midfoot.Lateral			R.Midfoot.Superior			R.Toe			
		X1	Y1	Z1	X2	Y2	Z2	X3	Y3	Z3	X4	Y4	Z4	X5	Y5	Z5	X6	Y6	Z6	X7	Y7	Z7	X8	Y8	Z8	X9	Y9	Z9	X10	Y10	Z10	X11	Y11	Z11	X12	Y12	Z12	X13	Y13	Z13	X14	Y14	Z14	X15	Y15	Z15	X16	Y16	Z16	X17	Y17	Z17	X18	Y18	Z18	X19	Y19	Z19	X20	Y20	Z20	X21	Y21	Z21	X22	Y22	Z22	X23	Y23	Z23	X24	Y24	Z24	X25	Y25	Z25	X26	Y26	Z26	X27	Y27	Z27	X28	Y28	Z28	X29	Y29	Z29	X30	Y30	Z30	X31	Y31	Z31	X32	Y32	Z32	

89	11.002857142857	1014.807543673199	1007.403703240865	535.835644602526	1051.163273775582	966.151609855994	298.485896150255	1123.766910190161	1443.324410419366	436.424366389957	993.528696006958	1512.033588778268	577.551191941052	1014.659796646594	1573.356308222211	394.293260558135	1113.580532206556	1515.369486794521	233.912552227230	1065.888029211659	1201.932568963002	84.551416489696	1191.264555224666	942.598888570956	97.343714677403	872.339889786752	1194.826451646114	695.065484005233	1089.108152889247	1001.955158754476	683.561698696503	1070.440744508427	748.684189970804	301.075529070450	1002.973828095696	675.652965965773	256.699166420909	1070.080851783308	622.366049211992	330.686575553834	1071.126049608991	505.869268025408	343.811517941807	1020.606586714379	403.396005977292	362.268644536116	964.009106698692	333.265562490041	276.443089346171	982.442032651402	281.411804191907	369.910785533788	844.206965743935	51.428331929870	364.521395198701	936.538380610609	26.356670963674	310.854999487867	1030.778907229389	88.461181269220	361.374590866798	1137.512462928270	44.355402128752	373.103649933998	1047.987209236026	789.007386164169	585.704184169182	968.299099177879	714.440785507039	647.665879979866	1060.232497550465	655.493331624225	593.499103377587	1056.472144663421	550.585908300486	637.251182511875	967.012961696019	457.384676554962	600.657421895653	864.631781878419	440.433878372081	678.522340874400	878.845920593644	346.267798944130	602.425983281312	663.624734495058	232.152330903531	570.013669538223	697.786503001505	152.388743380748	638.589075017000	823.384056416173	139.947856515774	632.151505154306	877.096890115073	42.524692807597	626.667543175939	
90	11.018571428571	1014.260970583914	1009.319799448621	534.905074241111	1050.146919854239	965.991782814421	296.979367294823	1123.054602393208	1444.174965794177	434.901846732153	992.356339395140	1512.686518383242	575.652761676874	1014.058183525370	1574.058113445341	392.569227447707	1113.684560897811	1516.320518956758	232.625745497161	1068.157920342646	1202.536420151967	83.217485821763	1195.459613965295	944.174196321532	96.624299575621	869.557186974631	1195.722176034561	692.242358474017	1085.910872421321	1002.350227566574	680.842378795905	1067.481456652076	748.246818968178	300.120844168630	998.817487505681	675.980823178346	256.226446568210	1065.596526868145	621.956834720883	329.531139998631	1065.544241381561	505.589589392868	342.487256415930	1014.724086527543	403.478271467127	361.301962729741	957.287563940561	333.578894153323	275.872525168324	976.144243499814	281.623169049312	369.151631049756	837.084307313535	51.689614478754	364.197876664972	929.413303474147	26.346284805829	310.755442426253	1023.735990608856	88.443731781837	361.120860800493	1130.295252261460	44.379811139071	373.059227560353	1047.620071239121	790.839027989166	584.899465996257	968.044141246777	716.750764116904	647.033823784324	1059.306785683763	657.692263487657	592.618231383301	1056.474395539620	553.712539008026	637.509745309441	970.049826476901	458.728093028267	602.469417736037	867.443540718417	439.628517648642	679.194443778256	886.079566490484	344.708348041772	605.448445751690	676.095219837331	219.754236837239	571.895738500547	712.573968855229	144.906102804937	644.551171592960	838.454743685692	138.295704846128	640.792597189828	896.694473969565	43.598249565439	640.812447341658	
91	11.034285714286	1013.612166325762	1011.185961564486	534.195243302280	1048.968127497243	965.625318817986	295.742238031021	1122.203949995179	1444.826106548453	433.434943083521	991.170132561338	1513.184757061890	573.842071551558	1013.286342653928	1574.563082503564	390.918504804329	1113.587184860499	1517.061277209841	231.409804720126	1070.263839603675	1202.940496838360	81.990075256769	1199.288242187117	945.475012184152	96.171380898362	866.990074679058	1196.514957961216	689.818743093676	1082.796314815428	1002.524358434477	678.037135258525	1064.519976504806	747.670526848801	299.556268868905	994.737947073685	676.097151281593	256.049919032341	1061.027935826524	621.427671392305	328.816408374214	1059.906181389578	505.250661317000	341.685439548327	1008.794528982566	403.459246265317	360.729747117658	950.739835623197	333.769006107608	275.644412043162	969.805145046491	281.749101772455	368.721145423263	829.960182851599	51.889979841700	363.985673273533	922.285740715253	26.372271021411	310.715765583876	1016.651945042840	88.405965571810	360.992886683358	1123.099836256899	44.402029513471	373.021106320934	1046.819478646678	792.479769156922	584.747787908955	967.207700466275	718.808786277554	646.552860794124	1058.012656890410	659.765672711543	592.119839264343	1056.307970060033	556.854935694214	638.182218827496	973.764267394634	459.868610114017	604.541647523992	870.941606419891	437.948760982057	679.855253551019	894.884124282825	342.583661285485	608.686990624081	691.577454747714	205.720131364968	573.763842970013	730.383194740425	136.103628613097	650.505405852936	856.316580124573	136.131947409408	649.605749478951	919.473843777651	44.799297276179	655.157026986336	
92	11.050000000000	1012.866873295979	1012.990203470693	533.699437935400	1047.731767267829	965.110742983899	294.803379798674	1121.179608749466	1445.244936088507	432.052165351403	989.898093294228	1513.503053541249	572.116184026467	1012.326571156913	1574.846223695386	389.338026924047	1113.278124463631	1517.546017453149	230.267333247115	1072.189090108571	1203.094281259109	80.875523150853	1202.761155886790	946.462694758729	95.961374056278	864.622892841605	1197.145535972056	687.781301219873	1079.805685970925	1002.482935125500	675.200986598340	1061.581111280520	746.951019599249	299.405130851553	990.816781187162	675.998158093736	256.148764854908	1056.446815162774	620.745733855373	328.531729373650	1054.280212493032	504.816784809280	341.373974125356	1002.865462479190	403.312484494956	360.516154239722	944.404747548731	333.815657255449	275.699709240182	963.463918118475	281.770885109743	368.604114680210	822.835835222219	52.007569142897	363.896566087649	915.156898470600	26.428126524586	310.730672145198	1009.529057813302	88.343652161237	360.984320350181	1115.930917022681	44.413355879007	372.990666905195	1045.700030534569	793.995131489170	585.239547327462	965.977954422536	720.612915280599	646.318899859312	1056.609221646824	661.777226844576	592.101135555714	1056.287971208426	560.033710192601	639.346342439467	978.303549017016	460.944012436889	606.833431202690	875.388939421019	435.620192462191	680.582467395183	905.242932199878	340.246933080893	612.048761130178	709.882520963307	191.097308434446	575.687662005144	750.929398386891	126.666295021879	656.161514386888	876.579166248857	133.823702150110	658.064480281035	944.746877087616	46.369340903724	668.697271423272	
